Coordinates
version=1
nRows=6
nColumns=63
inDegrees=yes

Units are S.I. units (second, meters, Newtons, ...)
If the header above contains a line with 'inDegrees', this indicates whether rotational values are in degrees (yes) or radians (no).

endheader
time	pelvis_tilt	pelvis_list	pelvis_rotation	pelvis_tx	pelvis_ty	pelvis_tz	hip_flexion_r	hip_adduction_r	hip_rotation_r	knee_angle_r	knee_angle_r_beta	ankle_angle_r	subtalar_angle_r	mtp_angle_r	hip_flexion_l	hip_adduction_l	hip_rotation_l	knee_angle_l	knee_angle_l_beta	ankle_angle_l	subtalar_angle_l	mtp_angle_l	L5_S1_Flex_Ext	L5_S1_Lat_Bending	L5_S1_axial_rotation	L4_L5_Flex_Ext	L4_L5_Lat_Bending	L4_L5_axial_rotation	L3_L4_Flex_Ext	L3_L4_Lat_Bending	L3_L4_axial_rotation	L2_L3_Flex_Ext	L2_L3_Lat_Bending	L2_L3_axial_rotation	L1_L2_Flex_Ext	L1_L2_Lat_Bending	L1_L2_axial_rotation	L1_T12_Flex_Ext	L1_T12_Lat_Bending	L1_T12_axial_rotation	Abs_r3	Abs_r2	Abs_r1	Abs_t1	Abs_t2	neck_flexion	neck_bending	neck_rotation	arm_flex_r	arm_add_r	arm_rot_r	elbow_flex_r	pro_sup_r	wrist_flex_r	wrist_dev_r	arm_flex_l	arm_add_l	arm_rot_l	elbow_flex_l	pro_sup_l	wrist_flex_l	wrist_dev_l
1.508475	-0.813975	0.213097	85.527385	0.143349	1.066738	0.106978	2.678965	-1.038399	13.923819	7.824854	0.136569	30.969696	-13.834046	0.000000	-2.578541	3.237975	3.337611	0.358519	0.006257	27.429851	-8.622111	0.000000	-0.127419	-0.829855	0.329925	-0.236630	-1.103707	0.350545	-0.209337	-2.017710	0.350545	-0.145628	-2.017710	0.288684	-0.118322	-1.692241	0.268064	-0.072807	-1.285446	0.247444	-0.910144	-9.387489	1.834944	0.000000	0.000000	17.060673	6.603290	-26.247675	-7.905745	-6.572182	-25.539766	144.056946	82.696635	-16.523896	3.573642	11.277992	-14.232732	106.259991	4.229953	2.289078	-9.731226	-3.323017
1.525424	-0.921742	0.216864	84.827447	0.143991	1.066429	0.107449	2.977986	-1.088768	14.694679	8.219526	0.143458	31.118441	-13.996151	0.000000	-2.584087	3.400693	2.814462	0.368021	0.006423	27.373624	-8.829688	0.000000	-0.119361	-0.820354	0.508787	-0.221665	-1.091071	0.540587	-0.196098	-1.994609	0.540587	-0.136417	-1.994609	0.445189	-0.110838	-1.672866	0.413390	-0.068203	-1.270728	0.381591	-0.852582	-9.280010	2.829723	0.000000	0.000000	16.713615	5.858251	-26.733603	-8.446707	-6.643307	-25.108504	142.579248	82.603527	-16.629534	6.287956	11.272577	-14.363953	104.915524	4.308224	2.237718	-10.505491	-2.871233
1.542373	-1.015036	0.227737	84.150920	0.144563	1.066191	0.108098	3.259000	-1.138985	15.265836	8.558870	0.149380	31.267396	-13.928594	0.000000	-2.584906	3.548192	2.307224	0.378817	0.006612	27.303220	-9.021534	0.000000	-0.114649	-0.809339	0.675694	-0.212914	-1.076421	0.717925	-0.188356	-1.967827	0.717925	-0.131032	-1.967827	0.591232	-0.106463	-1.650404	0.549001	-0.065510	-1.253666	0.506770	-0.818924	-9.155406	3.758006	0.000000	0.000000	16.421102	5.250890	-27.036027	-9.000307	-6.737413	-24.504440	141.013881	82.712918	-16.271185	8.348136	11.222094	-14.543170	102.547500	4.553111	2.238065	-11.464879	-2.725247
1.559322	-1.084516	0.230612	83.507491	0.145018	1.066021	0.108851	3.528589	-1.171876	15.755039	8.842818	0.154336	31.380700	-13.804876	0.000000	-2.567991	3.670094	1.810610	0.389017	0.006790	27.228144	-9.189520	0.000000	-0.110792	-0.795730	0.831004	-0.205752	-1.058321	0.882941	-0.182020	-1.934738	0.882941	-0.126624	-1.934738	0.727128	-0.102881	-1.622653	0.675190	-0.063306	-1.232586	0.623253	-0.791375	-9.001457	4.621792	0.000000	0.000000	16.198745	4.759306	-27.181842	-9.601658	-6.860618	-23.847183	139.411743	83.058497	-15.675216	9.725439	11.154041	-14.721595	100.025671	4.781994	2.243391	-12.483877	-2.618168
1.576271	-1.115451	0.224636	82.935618	0.145288	1.065938	0.109614	3.754505	-1.182269	16.091259	9.025243	0.157520	31.447132	-13.566575	0.000000	-2.536145	3.751509	1.331442	0.396856	0.006926	27.159928	-9.296262	0.000000	-0.107725	-0.777632	0.969745	-0.200055	-1.034251	1.030354	-0.176981	-1.890735	1.030354	-0.123118	-1.890735	0.848527	-0.100033	-1.585747	0.787918	-0.061554	-1.204552	0.727309	-0.769466	-8.796730	5.393429	0.000000	0.000000	16.068717	4.401496	-27.136403	-10.275224	-6.985179	-23.321050	137.800381	83.635859	-14.823684	10.502360	11.063366	-14.881163	97.459234	4.978056	2.266941	-13.536696	-2.536934
1.593220	-1.114465	0.201362	82.439791	0.145391	1.065935	0.110311	3.933163	-1.176247	16.292164	9.095402	0.158745	31.462475	-13.234957	0.000000	-2.485319	3.796650	0.867882	0.401905	0.007015	27.090969	-9.333450	0.000000	-0.104315	-0.755886	1.091664	-0.193724	-1.005329	1.159893	-0.171379	-1.837862	1.159893	-0.119222	-1.837862	0.955206	-0.096867	-1.541404	0.886977	-0.059606	-1.170868	0.818748	-0.745113	-8.550739	6.071506	0.000000	0.000000	16.068612	4.145981	-26.905186	-11.027568	-7.088934	-22.964599	136.217950	84.409108	-14.002331	10.851982	10.946974	-15.016423	95.143074	5.115947	2.321669	-14.606991	-2.389271
